<?xml version="1.0" standalone="no"?>
<!-- Generator: Adobe Fireworks 10, Export SVG Extension by Aaron Beall (http://fireworks.abeall.com) . Version: 0.6.1  -->
<!DOCTYPE svg PUBLIC "-//W3C//DTD SVG 1.1//EN" "http://www.w3.org/Graphics/SVG/1.1/DTD/svg11.dtd">
<svg id="FF_logga_staende_bla.fw-Page%201" viewBox="0 0 441 423" style="background-color:#ffffff00" version="1.1"
	xmlns="http://www.w3.org/2000/svg" xmlns:xlink="http://www.w3.org/1999/xlink" xml:space="preserve"
	x="0px" y="0px" width="441px" height="423px"
>
	<g id="Layer_1_1">
		<g>
			<path d="M 112.9368 272.8742 L 133.0468 272.8742 L 133.0468 276.9377 L 117.2752 276.9377 L 117.2752 286.9672 L 131.9627 286.9672 L 131.9627 291.0307 L 117.2752 291.0307 L 117.2752 304.8523 L 112.9368 304.8523 L 112.9368 272.8742 Z" fill="#ffffff"/>
			<g>
				<path d="M 146.6033 286.9672 L 152.2993 286.9672 C 153.1413 286.9672 153.9773 286.8979 154.8055 286.7612 C 155.6357 286.6285 156.3722 286.3776 157.0226 286.0194 C 157.6692 285.6553 158.1888 285.136 158.5795 284.4586 C 158.9721 283.7822 159.1674 282.9037 159.1674 281.8163 C 159.1674 280.7328 158.9721 279.8524 158.5795 279.175 C 158.1888 278.4985 157.6692 277.9773 157.0226 277.6181 C 156.3722 277.2569 155.6357 277.008 154.8055 276.8723 C 153.9773 276.7357 153.1413 276.6703 152.2993 276.6703 L 146.6033 276.6703 L 146.6033 286.9672 ZM 142.2668 272.8742 L 153.5183 272.8742 C 155.5674 272.8742 157.2531 273.1534 158.5795 273.7088 C 159.9039 274.2671 160.9529 274.9738 161.7225 275.8338 C 162.4882 276.6917 163.0215 277.6552 163.3242 278.724 C 163.627 279.7928 163.7774 280.8236 163.7774 281.8163 C 163.7774 282.8412 163.5958 283.829 163.2344 284.7768 C 162.873 285.7246 162.3534 286.5816 161.6756 287.3498 C 160.9978 288.1161 160.1676 288.7661 159.1909 289.2903 C 158.2122 289.8194 157.1183 290.1415 155.9131 290.2615 L 164.9983 304.8523 L 159.5757 304.8523 L 151.4399 290.7603 L 146.6033 290.7603 L 146.6033 304.8523 L 142.2668 304.8523 L 142.2668 272.8742 Z" fill="#ffffff"/>
			</g>
			<path d="M 173.474 272.8732 L 177.8125 272.8732 L 177.8125 304.8523 L 173.474 304.8523 L 173.474 272.8732 Z" fill="#ffffff"/>
			<path d="M 188.8041 272.8742 L 193.1426 272.8742 L 193.1426 300.7859 L 207.8281 300.7859 L 207.8281 304.8523 L 188.8041 304.8523 L 188.8041 272.8742 Z" fill="#ffffff"/>
			<g>
				<path d="M 218.9819 272.8742 L 218.9819 292.4753 C 218.9819 293.469 219.1187 294.5008 219.3902 295.5686 C 219.6578 296.6394 220.1129 297.6243 220.7458 298.5272 C 221.3787 299.432 222.205 300.167 223.2305 300.741 C 224.2521 301.313 225.5199 301.597 227.0259 301.597 C 228.532 301.597 229.7997 301.313 230.8233 300.741 C 231.8449 300.167 232.6771 299.432 233.308 298.5272 C 233.9409 297.6243 234.3941 296.6394 234.6637 295.5686 C 234.9371 294.5008 235.07 293.469 235.07 292.4753 L 235.07 272.8742 L 239.4084 272.8742 L 239.4084 293.1508 C 239.4084 295.0201 239.092 296.7126 238.4591 298.2334 C 237.8262 299.757 236.9511 301.0719 235.8396 302.1827 C 234.7223 303.3013 233.4116 304.1583 231.9074 304.7606 C 230.4014 305.3638 228.7723 305.6644 227.0259 305.6644 C 225.2796 305.6644 223.6505 305.3638 222.1464 304.7606 C 220.6384 304.1583 219.3277 303.3013 218.2143 302.1827 C 217.0989 301.0719 216.2277 299.757 215.5928 298.2334 C 214.9619 296.7126 214.6415 295.0201 214.6415 293.1508 L 214.6415 272.8742 L 218.9819 272.8742 Z" fill="#ffffff"/>
			</g>
			<path d="M 250.2282 272.8742 L 270.3363 272.8742 L 270.3363 276.9377 L 254.5667 276.9377 L 254.5667 286.9672 L 269.2522 286.9672 L 269.2522 291.0307 L 254.5667 291.0307 L 254.5667 304.8523 L 250.2282 304.8523 L 250.2282 272.8742 Z" fill="#ffffff"/>
			<path d="M 286.5572 276.9377 L 276.2512 276.9377 L 276.2512 272.8742 L 301.1978 272.8742 L 301.1978 276.9377 L 290.8937 276.9377 L 290.8937 304.8494 L 286.5572 304.8494 L 286.5572 276.9377 Z" fill="#ffffff"/>
			<g>
				<path d="M 309.8337 298.166 C 310.617 299.3403 311.6191 300.2071 312.838 300.7664 C 314.0588 301.3208 315.3168 301.597 316.6119 301.597 C 317.3366 301.597 318.0731 301.4848 318.827 301.2593 C 319.5791 301.0348 320.2667 300.6961 320.884 300.2422 C 321.4993 299.7922 322.0032 299.2358 322.3978 298.574 C 322.7885 297.9132 322.9858 297.144 322.9858 296.2694 C 322.9858 295.0376 322.5912 294.0937 321.8099 293.4475 C 321.0266 292.8004 320.0538 292.2586 318.8954 291.8214 C 317.7351 291.3841 316.4713 290.9633 315.098 290.5544 C 313.7287 290.1522 312.461 289.5861 311.3026 288.8618 C 310.1404 288.1405 309.1695 287.1673 308.3882 285.9491 C 307.6049 284.729 307.2122 283.0823 307.2122 281.0061 C 307.2122 280.073 307.4154 279.0783 307.8236 278.0232 C 308.228 276.9699 308.8707 276.0075 309.7438 275.1329 C 310.617 274.2603 311.7382 273.5302 313.1095 272.9416 C 314.4788 272.3559 316.1313 272.0621 318.0594 272.0621 C 319.8037 272.0621 321.4778 272.3051 323.0737 272.7825 C 324.6716 273.2666 326.0741 274.2456 327.2793 275.7215 L 323.7515 278.9251 C 323.2104 278.0817 322.4427 277.4053 321.4504 276.8938 C 320.4503 276.3823 319.3232 276.1256 318.0594 276.1256 C 316.8522 276.1256 315.8521 276.2847 315.0551 276.601 C 314.2542 276.9172 313.6135 277.3233 313.1349 277.8201 C 312.6524 278.317 312.3125 278.8499 312.1152 279.4239 C 311.9199 279.9958 311.8222 280.521 311.8222 281.0061 C 311.8222 282.36 312.2129 283.3956 312.9982 284.1199 C 313.7814 284.8432 314.7523 285.4298 315.9126 285.8828 C 317.0729 286.3327 318.3348 286.7388 319.708 287.1019 C 321.0773 287.4621 322.3431 287.9687 323.5054 288.6139 C 324.6638 289.262 325.6346 290.1337 326.4179 291.2318 C 327.2012 292.3318 327.5919 293.8468 327.5919 295.7726 C 327.5919 297.309 327.3008 298.6931 326.7128 299.9289 C 326.1249 301.1617 325.3337 302.2012 324.3414 303.0446 C 323.3472 303.8879 322.1732 304.5341 320.8137 304.9861 C 319.458 305.438 318.0125 305.6644 316.4752 305.6644 C 314.428 305.6644 312.4844 305.3013 310.6483 304.581 C 308.8082 303.8557 307.349 302.743 306.2649 301.2359 L 309.8337 298.166 Z" fill="#ffffff"/>
			</g>
		</g>
		<g>
			<path d="M 56.7097 321.2294 L 76.7982 321.2294 L 76.7982 325.288 L 61.0443 325.288 L 61.0443 335.3038 L 75.7141 335.3038 L 75.7141 339.3644 L 61.0443 339.3644 L 61.0443 353.1723 L 56.7097 353.1723 L 56.7097 321.2294 Z" fill="#ffffff"/>
			<g>
				<path d="M 90.341 335.3038 L 96.0293 335.3038 C 96.8712 335.3038 97.7072 335.2384 98.5355 335.1047 C 99.3637 334.969 100.0982 334.7172 100.7487 334.358 C 101.3952 333.9948 101.9148 333.4775 102.3055 332.7982 C 102.6962 332.1256 102.8896 331.2452 102.8896 330.1597 C 102.8896 329.0802 102.6962 328.1997 102.3055 327.5213 C 101.9148 326.8449 101.3952 326.3256 100.7487 325.9664 C 100.0982 325.6072 99.3637 325.3602 98.5355 325.2197 C 97.7072 325.086 96.8712 325.0206 96.0293 325.0206 L 90.341 325.0206 L 90.341 335.3038 ZM 86.0065 321.2294 L 97.2502 321.2294 C 99.2934 321.2294 100.9811 321.5085 102.3055 322.0649 C 103.6279 322.6203 104.6769 323.327 105.4426 324.1841 C 106.2084 325.042 106.7455 326.0025 107.0444 327.0704 C 107.3452 328.1411 107.4976 329.17 107.4976 330.1597 C 107.4976 331.1866 107.3159 332.1734 106.9546 333.1203 C 106.5932 334.0671 106.0736 334.9212 105.3958 335.6923 C 104.7199 336.4576 103.8897 337.1037 102.9149 337.6279 C 101.9383 338.1579 100.8463 338.481 99.6411 338.5981 L 108.7165 353.1723 L 103.2998 353.1723 L 95.1718 339.0959 L 90.341 339.0959 L 90.341 353.1723 L 86.0065 353.1723 L 86.0065 321.2294 Z" fill="#ffffff"/>
				<path d="M 136.812 318.9599 C 137.5035 318.9599 138.1422 319.2 138.7282 319.6813 C 139.3162 320.1625 139.6092 320.7794 139.6092 321.531 C 139.6092 322.3451 139.3475 323.0195 138.8201 323.5603 C 138.2946 324.1011 137.6246 324.3734 136.812 324.3734 C 135.9994 324.3734 135.3274 324.1011 134.8039 323.5603 C 134.2765 323.0195 134.0128 322.3451 134.0128 321.531 C 134.0128 320.7794 134.3058 320.1625 134.8918 319.6813 C 135.4798 319.2 136.2279 318.9599 136.9194 318.9599 L 136.9194 318.9599 M 134.7648 341.4816 L 128.8051 326.8215 L 128.7133 326.8215 L 122.6636 341.4816 L 134.7648 341.4816 ZM 121.1302 318.9619 C 121.8217 318.9619 122.4624 319.201 123.0504 319.6832 C 123.6345 320.1645 123.9294 320.7813 123.9294 321.5349 C 123.9294 322.348 123.6657 323.0215 123.1403 323.5613 C 122.6109 324.103 121.9428 324.3754 121.1302 324.3754 C 120.3196 324.3754 119.6476 324.103 119.1202 323.5613 C 118.5928 323.0215 118.3311 322.348 118.3311 321.5349 C 118.3311 320.7813 118.626 320.1645 119.212 319.6832 C 119.798 319.201 120.3899 318.9599 121.0814 318.9599 L 121.0814 318.9599 M 126.9982 321.2294 L 130.9245 321.2294 L 144.604 353.1723 L 139.5467 353.1723 L 136.3432 345.2757 L 121.1302 345.2757 L 117.9697 353.1723 L 112.9143 353.1723 L 126.9982 321.2294 Z" fill="#ffffff"/>
			</g>
			<path d="M 151.8276 321.2294 L 158.2816 321.2294 L 168.4392 345.4113 L 168.6189 345.4113 L 178.6866 321.2294 L 185.1425 321.2294 L 185.1425 353.1723 L 180.8099 353.1723 L 180.8099 326.9142 L 180.7181 326.9142 L 169.9276 353.1723 L 167.0386 353.1723 L 156.252 326.9142 L 156.1602 326.9142 L 156.1602 353.1723 L 151.8276 353.1723 L 151.8276 321.2294 Z" fill="#ffffff"/>
			<g>
				<path d="M 206.4051 321.2294 L 210.7377 321.2294 L 210.7377 344.0585 C 210.7377 346.0722 210.4212 347.7208 209.7903 348.9985 C 209.1555 350.2782 208.3663 351.2826 207.4189 352.0215 C 206.4715 352.7585 205.4557 353.267 204.3736 353.5569 C 203.2894 353.84 202.2952 353.9864 201.3927 353.9864 C 199.1346 353.9864 197.232 353.4047 195.683 352.245 C 194.13 351.0854 193.1475 349.3372 192.7256 346.9907 L 196.9702 346.0448 C 197.2105 347.2464 197.7067 348.1932 198.4568 348.8853 C 199.2127 349.5793 200.1894 349.9209 201.3927 349.9209 C 202.4768 349.9209 203.3422 349.7111 203.9887 349.2914 C 204.6353 348.8697 205.1412 348.3221 205.5007 347.6456 C 205.862 346.9663 206.1023 346.1932 206.2234 345.3235 C 206.3445 344.4509 206.4051 343.5616 206.4051 342.6587 L 206.4051 321.2294 Z" fill="#ffffff"/>
			</g>
			<path d="M 239.3567 341.4816 L 233.4008 326.8215 L 233.3109 326.8215 L 227.2594 341.4816 L 239.3567 341.4816 ZM 231.5939 321.2294 L 235.5202 321.2294 L 249.1998 353.1723 L 244.1444 353.1723 L 240.9389 345.2757 L 225.726 345.2757 L 222.5654 353.1723 L 217.51 353.1723 L 231.5939 321.2294 Z" fill="#ffffff"/>
			<path d="M 256.7379 321.2294 L 262.4261 321.2294 L 280.0319 347.4885 L 280.1218 347.4885 L 280.1218 321.2294 L 284.4563 321.2294 L 284.4563 353.1723 L 278.9478 353.1723 L 261.1603 326.9142 L 261.0705 326.9142 L 261.0705 353.1723 L 256.7379 353.1723 L 256.7379 321.2294 Z" fill="#ffffff"/>
			<g>
				<path d="M 299.2532 349.1088 L 304.7168 349.1088 C 306.551 349.1088 308.2895 348.8599 309.9304 348.368 C 311.5693 347.8711 313.007 347.1254 314.2415 346.1356 C 315.4721 345.14 316.4507 343.8964 317.1755 342.4108 C 317.8962 340.9232 318.2576 339.1838 318.2576 337.1984 C 318.2576 336.1784 318.0955 334.9807 317.7595 333.6122 C 317.4313 332.2486 316.8082 330.9445 315.8882 329.7107 C 314.972 328.4808 313.7004 327.4315 312.0732 326.5745 C 310.448 325.7175 308.3423 325.288 305.7521 325.288 L 299.2532 325.288 L 299.2532 349.1088 ZM 294.9206 321.2294 L 306.0705 321.2294 C 308.3247 321.2294 310.3035 321.4841 312.0088 321.9985 C 313.7062 322.5061 315.1791 323.1933 316.4293 324.0493 C 317.6775 324.9054 318.7206 325.8922 319.5449 327.005 C 320.3732 328.1177 321.0275 329.2559 321.5081 330.4321 C 321.9905 331.6044 322.3363 332.7796 322.5472 333.9519 C 322.7582 335.1232 322.8637 336.2077 322.8637 337.1984 C 322.8637 339.2463 322.4886 341.2239 321.7347 343.1321 C 320.9807 345.0424 319.8692 346.7427 318.3943 348.2323 C 316.9176 349.7198 315.0912 350.9166 312.9113 351.8156 C 310.7254 352.7184 308.2055 353.1723 305.3477 353.1723 L 294.9206 353.1723 L 294.9206 321.2294 Z" fill="#ffffff"/>
			</g>
			<path d="M 331.3355 321.2294 L 351.9691 321.2294 L 351.9691 325.288 L 335.672 325.288 L 335.672 334.808 L 350.8381 334.808 L 350.8381 338.8666 L 335.672 338.8666 L 335.672 349.1088 L 352.7758 349.1088 L 352.7758 353.1723 L 331.3355 353.1723 L 331.3355 321.2294 Z" fill="#ffffff"/>
			<path d="M 369.192 325.288 L 358.8997 325.288 L 358.8997 321.2294 L 383.819 321.2294 L 383.819 325.288 L 373.5266 325.288 L 373.5266 353.1684 L 369.192 353.1684 L 369.192 325.288 Z" fill="#ffffff"/>
		</g>
		<g>
			<g>
				<path d="M 222.668 211.2743 C 225.8236 212.348 228.6707 211.2743 228.6707 211.2743 C 228.0554 202.8135 230.21 189.2798 230.21 189.2798 C 230.21 189.2798 230.6846 186.4989 228.9413 184.4081 C 228.8123 184.2519 227.5026 182.6823 227.7448 180.3807 C 228.2908 172.931 226.0444 170.481 226.0444 170.481 C 221.7167 168.9837 211.7417 172.7505 209.3371 174.8052 C 212.1402 179.3811 214.9883 182.5915 217.4124 184.9537 C 219.3072 186.8005 221.8358 188.4969 222.4511 192.7616 C 220.9578 191.8596 219.1235 190.2442 219.0386 190.1671 C 218.2738 191.3813 217.8714 192.6893 217.7054 193.9749 L 217.7083 193.9768 L 217.7044 193.9749 C 217.2913 197.0984 217.9574 199.8227 218.8217 201.5855 C 220.947 205.9155 222.668 211.2743 222.668 211.2743 L 222.668 211.2743 Z" fill="#ffffff"/>
				<path d="M 217.7669 188.9831 C 214.6249 186.3466 210.5042 182.7428 208 177.4826 L 207.3964 178.2879 C 206.1433 180.205 206.4901 183.5501 206.4901 183.5501 C 206.4608 187.2758 205.1735 187.517 204.6627 187.5872 C 201.0792 188.0733 199.5946 191.1324 199.0242 192.8309 C 197.2682 198.0491 195.2943 199.1814 195.2943 199.1814 C 196.8052 202.0658 199.7968 203.7935 199.7968 203.7935 C 206.1053 197.9505 210.9887 193.8275 217.7669 188.9831 L 217.7669 188.9831 Z" fill="#ffffff"/>
				<path d="M 156.4972 88.2697 C 159.1421 89.1395 204.3521 103.2002 204.3521 103.2002 C 206.5789 103.8366 209.1857 104.0572 212.2232 102.5033 C 212.2232 102.5033 160.2614 86.8744 158.096 86.2746 C 147.0789 83.2272 140.9883 81.663 140.7705 82.0769 C 140.9434 83.1276 156.4972 88.2697 156.4972 88.2697 Z" fill="#ffffff"/>
				<path d="M 278.353 126.1962 C 279.2291 126.4617 279.7506 125.4495 279.8961 124.9361 C 280.0388 124.4197 280.2478 123.1098 279.3736 122.8423 C 279.3736 122.8423 277.2366 122.3855 275.2432 121.7803 C 273.8964 121.3714 271.3218 120.5007 269.7913 119.9814 C 269.7034 120.5758 269.5589 121.2288 269.3167 121.9219 C 269.1496 122.4041 268.9582 122.8297 268.7619 123.224 C 270.2484 123.6076 272.7751 124.2723 274.413 124.7692 C 276.8586 125.512 278.353 126.1962 278.353 126.1962 L 278.353 126.1962 Z" fill="#ffffff"/>
				<path d="M 247.1731 227.5782 L 286.1646 227.5782 C 286.1646 227.5782 301.0874 228.4703 299.9935 211.5125 L 299.302 211.5125 C 299.302 211.5125 299.3401 224.8997 286.2408 224.8997 L 247.9125 224.8997 C 247.9359 226.686 247.1731 227.5782 247.1731 227.5782 L 247.1731 227.5782 Z" fill="#ffffff"/>
				<path d="M 234.525 101.9742 C 234.8336 100.0328 234.7154 95.7535 229.3026 91.6066 C 228.4519 92.5041 227.2271 93.0712 225.8617 93.0712 C 224.4514 93.0712 223.1866 92.4675 222.3339 91.5177 C 221.3719 92.0912 218.4272 93.6696 217.2942 98.2094 C 218.3529 100.0777 227.8347 105.6395 234.525 101.9742 L 234.525 101.9742 Z" fill="#ffffff"/>
				<path d="M 225.9672 91.4265 C 227.5045 91.4265 228.7508 90.179 228.7508 88.6436 C 228.7508 87.1072 227.5045 85.8607 225.9672 85.8607 C 224.4289 85.8607 223.1817 87.1072 223.1817 88.6436 C 223.1817 90.179 224.4289 91.4265 225.9672 91.4265 L 225.9672 91.4265 Z" fill="#ffffff"/>
				<path d="M 221.1697 212.9298 C 220.9197 211.9303 220.6921 211.4081 220.6921 211.4081 C 219.5103 211.2031 217.9759 212.2748 217.9759 212.2748 C 224.3244 215.8503 221.1492 225.2462 220.8972 226.5123 C 220.5681 228.1707 221.1013 229.3283 221.1013 229.3283 L 227.902 229.3224 L 232.3938 222.3746 C 228.8201 218.9192 232.6703 211.9068 232.6243 211.9303 C 226.4194 215.1328 221.1697 212.9298 221.1697 212.9298 L 221.1697 212.9298 Z" fill="#ffffff"/>
				<path d="M 242.0953 221.5019 C 242.1461 223.7499 241.6665 224.5854 238.9885 224.7182 C 238.9885 224.7182 240.0482 229.6348 240.0609 229.6348 C 244.8525 229.9423 245.3028 225.4249 245.3028 225.4249 C 245.7647 221.8475 242.0953 221.5019 242.0953 221.5019 L 242.0953 221.5019 Z" fill="#ffffff"/>
				<path d="M 218.7954 224.8997 L 197.2369 224.8997 L 197.2369 218.1041 C 196.4731 217.8435 196.1782 217.5897 195.5374 216.9904 L 189.2524 224.8997 L 122.9156 224.8997 C 119.7551 224.8997 117.9247 227.5782 117.9247 227.5782 L 218.3344 227.5782 C 218.3578 226.686 218.5102 225.4903 218.7954 224.8997 L 218.7954 224.8997 Z" fill="#ffffff"/>
				<path d="M 201.8146 207.6598 C 201.8146 207.6598 202.1702 206.6076 200.9063 205.0341 L 199.5214 206.3225 C 199.5214 206.3225 194.928 203.5797 192.3828 198.7031 C 192.3828 198.7031 191.2459 203.5377 183.4128 208.0132 C 182.9577 208.2738 180.5785 209.3416 183.3474 211.8795 C 183.3474 211.8795 187.2102 215.1778 188.7084 219.9831 L 194.4651 215.701 C 193.9493 214.676 191.3611 208.6086 201.8146 207.6598 L 201.8146 207.6598 Z" fill="#ffffff"/>
				<path d="M 203.4311 218.9055 C 203.4311 218.9055 203.1996 215.9626 200.4307 215.3876 C 200.4307 215.3876 200.2832 218.1578 198.6658 218.4292 L 199.623 223.3048 C 201.213 222.9758 203.6625 222.0778 203.4311 218.9055 L 203.4311 218.9055 Z" fill="#ffffff"/>
				<path d="M 322.5336 218.6527 L 321.8431 218.6527 C 321.8431 218.6527 321.8831 231.1478 308.3599 232.039 L 237.8614 232.039 L 237.0663 224.4986 C 236.1082 224.2867 234.9196 223.9002 234.1011 223.5088 L 230.1621 232.0624 L 147.4765 232.0692 C 144.4429 232.076 142.761 234.7174 142.761 234.7174 L 308.2827 234.7174 C 308.2827 234.7174 323.772 235.6105 322.5336 218.6527 L 322.5336 218.6527 Z" fill="#ffffff"/>
				<path d="M 217.6351 109.376 C 217.6048 108.6654 217.6546 107.7889 218.3441 107.1788 C 218.9126 108.9085 220.1852 110.9075 221.5506 112.4488 C 220.9705 110.6762 219.7076 106.4946 221.282 103.3359 C 219.6236 102.6087 217.9828 101.7536 216.6281 100.2739 C 216.5089 100.6135 215.584 104.4487 210.3763 105.0939 C 210.9887 105.3174 214.2 106.8499 217.6351 109.376 L 217.6351 109.376 Z" fill="#ffffff"/>
				<path d="M 223.0576 103.8991 C 223.0576 103.8991 222.5791 104.8508 223.0996 105.1866 C 223.5343 105.4658 224.4113 105.8962 224.6545 106.108 C 224.8977 106.3198 225.0726 106.4174 224.7688 107.4053 C 224.7688 107.4053 225.7641 107.8006 226.2788 107.2042 C 226.7154 106.8655 227.2359 106.3384 227.7722 106.4711 C 227.7722 106.4711 227.7008 105.7283 226.8394 104.925 C 226.8394 104.925 224.1633 104.4506 223.0576 103.8991 L 223.0576 103.8991 Z" fill="#ffffff"/>
				<path d="M 234.2974 104.0065 C 234.1167 104.1314 232.8969 104.8362 230.5811 105.0168 C 230.2275 105.0431 229.3876 105.3525 229.3876 106.3384 L 229.3876 109.6786 C 229.3876 109.6786 226.8179 109.7518 226.3628 109.3721 C 226.3628 109.3721 226.1684 110.2828 227.6813 111.1174 C 227.6813 111.1174 227.4332 111.0618 226.5972 111.3653 C 226.5972 111.3653 225.3753 111.7167 225.0335 110.6069 L 224.3654 111.4131 C 224.3654 111.4131 226.2212 112.2467 228.4197 112.1716 C 228.4197 112.1716 228.4939 113.4083 227.2799 113.4083 C 227.2799 113.4083 226.1499 113.4913 225.6195 112.9095 C 225.6176 112.9124 225.6176 112.9154 225.6136 112.9193 L 225.6088 112.9124 C 225.6088 112.9124 224.3469 115.0833 225.5004 115.4415 C 227.0338 115.9198 229.6239 113.1936 231.4425 110.6049 C 232.804 108.6654 234.0728 106.149 234.3238 103.987 C 234.3238 103.987 234.3189 103.9899 234.3121 103.9938 C 234.315 103.9879 234.315 103.9782 234.317 103.9713 L 234.2974 104.0065 Z" fill="#ffffff"/>
				<path d="M 267.3398 119.3752 C 267.3447 119.3264 262.7162 117.7695 262.7152 117.7832 C 262.5833 118.9506 261.9778 120.6842 261.9778 120.6842 L 266.5175 122.1425 C 266.5175 122.1425 267.2148 121.0531 267.3398 119.3752 L 267.3398 119.3752 Z" fill="#ffffff"/>
				<path d="M 249.2847 116.9193 C 249.2847 116.9193 249.189 116.0106 249.3121 115.2746 C 249.4527 114.4371 249.6754 113.9061 249.6754 113.9061 L 234.942 109.4248 C 234.397 110.56 234.0796 111.0139 233.4262 112.0789 L 249.2847 116.9193 Z" fill="#ffffff"/>
				<path d="M 252.8848 119.8194 L 253.3868 121.8848 L 259.0067 123.9483 C 259.0067 123.9483 260.669 120.1903 260.9786 116.9213 C 261.1154 115.4747 259.8222 114.0994 256.773 113.3868 C 255.0238 112.9769 252.5117 112.7026 251.7118 113.7587 C 250.6238 115.1926 250.9793 117.7978 251.3026 118.444 C 251.9628 119.7647 252.8848 119.8194 252.8848 119.8194 L 252.8848 119.8194 Z" fill="#ffffff"/>
				<path d="M 216.2277 162.3062 C 216.3351 162.3774 216.047 163.0051 217.0549 163.6005 C 218.0629 164.194 220.4548 162.7093 222.1444 161.4111 C 222.6514 161.0246 225.6566 158.4711 221.6502 156.0777 C 220.0035 155.0938 217.6234 154.3665 215.3701 155.9537 C 213.7224 157.1133 213.574 158.7005 213.3513 159.4852 C 213.4333 159.5272 214.9775 161.4384 216.2277 162.3062 L 216.2277 162.3062 Z" fill="#ffffff"/>
				<path d="M 253.0518 123.7257 L 248.6792 131.5589 C 248.6792 131.5589 248.2807 130.0772 248.6606 128.0752 C 248.6606 128.0752 245.3125 123.0561 240.5502 118.1463 C 237.0292 114.5201 233.5121 112.1628 233.5121 112.1628 C 233.4682 112.114 233.436 112.0789 233.434 112.0827 C 231.3527 115.0579 230.0332 116.6011 225.4808 119.262 C 225.4349 119.2883 226.5356 121.8262 227.0425 123.9483 C 229.2743 133.3198 227.862 142.3185 226.9302 145.442 C 226.9615 145.446 228.3464 130.2188 222.8008 119.3752 C 220.2321 114.3532 218.4457 112.7924 214.7949 110.4156 C 209.7395 111.7509 199.3211 116.2126 190.6872 137.9319 C 191.8924 142.423 193.962 147.1532 198.741 151.6081 C 202.1164 154.755 208.2237 157.0801 211.2036 158.3159 C 211.5884 157.126 212.9724 154.2914 215.6006 153.7467 C 214.958 153.3065 211.8951 150.2591 210.1702 148.098 C 207.079 144.2219 205.9275 141.0105 205.3102 139.4263 C 203.0628 137.6586 197.4586 138.3399 197.4586 138.3399 C 197.4586 138.3399 200.3008 137.113 202.427 137.1676 C 204.5484 137.2242 205.7859 137.765 205.7956 137.9319 L 209.1076 131.9318 C 209.1076 131.9318 208.7755 135.1354 207.5166 138.5556 C 207.6347 138.948 208.1709 142.1008 211.0776 146.4103 C 213.1589 149.4909 217.9447 153.572 217.9935 153.6208 L 217.9867 153.6286 C 220.0338 153.9117 221.0887 154.2455 222.3671 154.9581 C 225.4124 156.6526 226.1391 159.7029 222.9854 162.3491 C 221.2772 163.7859 218.1547 165.9041 216.1583 165.0461 C 214.6444 164.3931 214.8193 162.9816 214.8193 162.9816 L 211.2456 159.8698 C 211.2456 159.8698 207.5068 158.5326 202.1076 156.1743 L 197.0328 172.8696 C 197.9733 173.6475 199.6767 174.4596 202.6224 174.2869 C 205.53 174.1199 206.8329 173.4035 208.6339 172.4137 C 210.5931 171.3381 213.0319 169.9959 218.2963 169.0637 C 226.6988 167.5654 231.38 170.4381 233.9331 173.4952 C 233.8413 172.9633 231.8713 156.5784 231.1183 145.3415 C 231.1007 145.3366 231.0734 145.3366 231.0568 145.3308 L 236.5711 127.9415 C 236.5711 127.9415 237.2802 129.3822 236.6259 132.8054 C 238.8781 134.5644 242.5182 137.2233 246.4318 139.2936 C 248.142 140.1994 250.9265 141.4127 253.295 141.0398 C 255.1195 140.7519 256.4068 138.0442 257.1979 134.7274 C 257.988 131.4115 258.6336 125.8448 258.6336 125.8448 C 258.6512 125.6408 253.0518 123.7257 253.0518 123.7257 L 253.0518 123.7257 Z" fill="#ffffff"/>
			</g>
			<path d="M 249.3121 115.2746 L 249.3121 115.2746 Z" fill="#ffffff"/>
		</g>
	</g>
</svg>