<svg xmlns:xlink="http://www.w3.org/1999/xlink" class="IconFaceTyping" xmlns="http://www.w3.org/2000/svg" viewBox="0 0 37.63 38.47" fill="currentColor" width="37.63"  height="38.47" ><path d="M37.26 24.23a1.26 1.26 0 0 0 0-1.79l-3.78-3.79a1.27 1.27 0 0 0-1.79 0L19.08 31.26a1.29 1.29 0 0 0-.33.58l-1 4.1h-1.56a1.27 1.27 0 0 1-1.27-1.26 1.26 1.26 0 1 0-2.52 0 1.27 1.27 0 0 1-2.53 0v-1a1.26 1.26 0 1 0-2.52 0v1c0 .69-1.36 1.26-2.06 1.26a1.27 1.27 0 0 0 0 2.53 6.16 6.16 0 0 0 3.32-1 3.77 3.77 0 0 0 5.05 0 3.79 3.79 0 0 0 2.53 1h2.52a1.35 1.35 0 0 0 .29 0l5.05-1.27a1.29 1.29 0 0 0 .59-.33m-1.54-2l-2.67.67.67-2.67 11.43-11.48 2 2z" fill="#231FD8"></path><path d="M12.64 27.43A11.62 11.62 0 0 1 1 15.82v-5.63a1.22 1.22 0 0 1 2.44 0v5.63a9.17 9.17 0 1 0 18.33 0V15a1.22 1.22 0 0 1 2.44 0v.87a11.62 11.62 0 0 1-11.57 11.56z" fill="#231FD8"></path><path d="M12.82 20.22h-2.19a.36.36 0 0 1-.3-.15.37.37 0 0 1-.06-.32l1-3.48a.37.37 0 1 1 .72.2l-.84 3h1.69a.38.38 0 1 1 0 .75z" fill="#231FD8"></path><circle cx="7.98" cy="15.14" r="1.47" fill="#231FD8"></circle><circle cx="15.85" cy="15.14" r="1.47" fill="#231FD8"></circle><path d="M24.55 16.24h-.26C18 14.82 10.82 8.94 8.59 7L3 10.51a1.18 1.18 0 0 1-.91.15 1.2 1.2 0 0 1-.91.43A1.19 1.19 0 0 1 0 9.9C0 9.8.12 0 10.69 0c5.75 0 10 1.59 12.54 4.73 3.65 4.45 2.54 10.3 2.49 10.55a1.2 1.2 0 0 1-.52.76 1.16 1.16 0 0 1-.65.2zM8.71 4.36a1.19 1.19 0 0 1 .8.3c.08.08 7.53 6.8 14 8.88a10.83 10.83 0 0 0-2.14-7.32c-2.1-2.55-5.7-3.84-10.69-3.84-5.56 0-7.4 3.3-8 5.54l5.4-3.38a1.21 1.21 0 0 1 .63-.18z" fill="#231FD8"></path></svg>