<svg xmlns:xlink="http://www.w3.org/1999/xlink" class="Logo" viewBox="0 0 222 30" fill="none" xmlns="http://www.w3.org/2000/svg" width="296"  height="40" >
								<path d="M17.2 9.564a12.738 12.738 0 0 0-3.577-.481c-1.252 0-2.34.137-3.578.481v13.142c0-1.926 1.514-3.578 3.578-3.578a3.562 3.562 0 0 1 3.578 3.578V30H27.247v-7.294c0-6.192-3.854-11.284-10.046-13.142Z" fill="#FF4D56"></path>
								<path d="M10.046 0H0v30h10.046V0Z" fill="#FF0037"></path>
								<path d="M17.201 0v9.564c6.193 1.858 10.046 6.95 10.046 13.142V0H17.201Z" fill="#F97D7D"></path>
								<path class="Logo__text" d="M111.881 20.973c1.087 1.21 2.532 1.871 4.184 1.871 2.27 0 3.949-1.252 3.949-3.138 0-1.706-1.362-2.518-2.738-2.876l-2.175-.578c-.605-.165-1.128-.536-1.128-1.1 0-.702.784-1.267 1.858-1.267.963 0 1.816.468 2.449 1.17l1.445-.99c-.949-1.102-2.298-1.886-3.881-1.886-2.188 0-3.688 1.486-3.688 3.137 0 1.39 1.046 2.395 2.422 2.739l1.968.51c1.101.274 1.624.563 1.624 1.21 0 .84-.839 1.39-2.133 1.39-1.142 0-2.037-.427-2.697-1.17l-1.459.977Zm-33.84 0c1.088 1.21 2.533 1.871 4.184 1.871 2.27 0 3.95-1.252 3.95-3.138 0-1.706-1.363-2.518-2.739-2.876l-2.174-.578c-.606-.165-1.129-.536-1.129-1.1 0-.702.785-1.267 1.858-1.267.963 0 1.817.468 2.45 1.17l1.445-.99c-.95-1.102-2.298-1.886-3.881-1.886-2.188 0-3.688 1.486-3.688 3.137 0 1.39 1.046 2.395 2.422 2.739l1.968.51c1.1.274 1.624.563 1.624 1.21 0 .84-.84 1.39-2.133 1.39-1.143 0-2.037-.427-2.698-1.17l-1.458.977Zm-31.665 1.596h2.05V8.463h-2.05v5.918h-7.17V8.463h-2.05V22.57h2.05v-6.262h7.17v6.262Zm89.711-12.785c0 .688.51 1.225 1.211 1.225.689 0 1.184-.537 1.184-1.225 0-.66-.509-1.21-1.184-1.21-.701 0-1.211.55-1.211 1.21Zm-30.798 0c0 .688.537 1.225 1.211 1.225.661 0 1.225-.537 1.225-1.225 0-.66-.564-1.21-1.225-1.21-.66 0-1.211.55-1.211 1.21Zm34.982 0c0 .688.564 1.225 1.225 1.225.66 0 1.211-.537 1.211-1.225 0-.66-.523-1.21-1.211-1.21-.675 0-1.225.55-1.225 1.21Zm-39.206 0a1.21 1.21 0 0 0 1.224 1.225c.661 0 1.211-.537 1.211-1.225 0-.66-.536-1.21-1.211-1.21-.674 0-1.224.55-1.224 1.21Zm73.169.028a1.252 1.252 0 1 0 2.505 0 1.24 1.24 0 0 0-1.252-1.252 1.24 1.24 0 0 0-1.253 1.252Zm-17.298 4.1c1.349 0 2.601.785 3.096 2.533h-6.165c.523-1.748 1.734-2.532 3.069-2.532Zm-84.908 0c1.348 0 2.6.785 3.096 2.533H68.96c.523-1.748 1.734-2.532 3.069-2.532Zm133.61 0c1.349 0 2.601.785 3.096 2.533h-6.165c.537-1.748 1.748-2.532 3.069-2.532Zm-29.243-1.472h-1.844V22.57h1.844V12.44Zm-24.688-.192a6.613 6.613 0 0 0-.95-.083c-1.059 0-1.871.44-2.738 1.225v-1.225h-1.858V22.57h1.858v-5.615c0-1.569 1.307-2.862 2.779-2.862.262 0 .565 0 .909.096v-1.94Zm-84.991 0a6.593 6.593 0 0 0-.95-.083c-1.073 0-1.871.44-2.738 1.225v-1.225H61.17V22.57h1.858v-5.615c0-1.569 1.307-2.862 2.78-2.862.261 0 .564 0 .908.096v-1.94Zm127.307 1.665c1.913 0 3.399 1.665 3.399 3.578 0 1.926-1.527 3.316-3.399 3.316-1.871 0-3.316-1.39-3.316-3.316 0-1.886 1.403-3.578 3.316-3.578Zm-101.628 0c1.913 0 3.399 1.665 3.399 3.578 0 1.926-1.528 3.316-3.4 3.316-1.87 0-3.316-1.39-3.316-3.316-.014-1.886 1.404-3.578 3.317-3.578Zm46.981 7.183c-1.995 0-3.495-1.596-3.495-3.605 0-1.996 1.514-3.578 3.495-3.578 2.01 0 3.523 1.61 3.523 3.578 0 1.995-1.513 3.605-3.523 3.605Zm-35.009 0c-2.009 0-3.523-1.61-3.523-3.605 0-1.968 1.514-3.578 3.523-3.578 1.996 0 3.523 1.596 3.523 3.578 0 2.023-1.527 3.605-3.523 3.605Zm112.431-7.142c1.487 0 2.794 1.17 2.794 3v5.615h1.83v-5.863c0-2.477-2.091-4.555-4.61-4.555-1.032 0-2.009.344-2.876 1.046v-1.046h-1.858V22.57h1.858V16.83c0-1.568 1.294-2.876 2.862-2.876Zm-33.908 0c1.486 0 2.794 1.17 2.794 3v5.615h1.83v-5.863c0-2.477-2.092-4.555-4.61-4.555-1.032 0-2.009.344-2.876 1.046v-1.046h-1.858V22.57h1.858V16.83c.014-1.568 1.293-2.876 2.862-2.876Zm-14.793 0c1.486 0 2.793 1.17 2.793 3v5.615h1.83v-5.863c0-2.477-2.091-4.555-4.61-4.555-1.032 0-2.009.344-2.876 1.046v-1.046h-1.858V22.57h1.858V16.83c.014-1.568 1.294-2.876 2.863-2.876ZM54.771 21.096c-1.486 0-2.752-1.142-2.752-2.972V12.44h-1.872v5.835c0 2.519 2.147 4.569 4.624 4.569 1.1 0 2.05-.399 2.862-1.046v.44c0 1.83-1.39 3.276-3.302 3.276-1.129 0-2.216-.482-3.014-1.486l-1.445 1.1c1.17 1.294 2.78 2.134 4.527 2.134 2.877 0 5.092-2.257 5.092-5.23V12.44h-1.858v5.794c-.013 1.582-1.293 2.862-2.862 2.862Zm155.945-3.646c0-2.904-2.271-5.299-5.078-5.299-2.794 0-5.051 2.381-5.051 5.395 0 2.945 2.161 5.298 5.381 5.298 1.913 0 3.248-.84 4.252-1.968l-1.389-1.1c-.688.742-1.666 1.334-2.973 1.334-1.968 0-3.082-1.293-3.358-2.959h8.188c0-.234.028-.413.028-.701Zm-48.716 0c0-2.904-2.27-5.299-5.078-5.299-2.793 0-5.05 2.381-5.05 5.395 0 2.945 2.16 5.298 5.381 5.298 1.912 0 3.234-.84 4.252-1.968l-1.39-1.1c-.688.742-1.665 1.334-2.972 1.334-1.968 0-3.083-1.293-3.358-2.959h8.188c.014-.234.027-.413.027-.701Zm-84.908 0c0-2.904-2.27-5.299-5.078-5.299-2.793 0-5.05 2.381-5.05 5.395 0 2.945 2.16 5.298 5.38 5.298 1.913 0 3.248-.84 4.253-1.968l-1.39-1.1c-.688.742-1.665 1.334-2.973 1.334-1.968 0-3.082-1.293-3.358-2.959h8.188c.014-.234.028-.413.028-.701Zm47.023-3.234h5.009v8.353h1.858v-8.353h2.917V12.44h-2.917c.151-1.706 1.266-2.408 2.917-2.45V8.175c-2.642.083-4.513 1.707-4.775 4.266h-5.009V9.99h-1.872v2.45h-1.816v1.776h1.816v4.046c0 2.697 1.955 4.32 4.748 4.39v-1.79c-1.775-.055-2.876-1.045-2.876-2.793v-3.853Zm9.908 3.302a5.313 5.313 0 0 0 5.353 5.34c2.973 0 5.381-2.353 5.381-5.34 0-2.972-2.394-5.353-5.381-5.353a5.316 5.316 0 0 0-5.353 5.353Zm-35.023 0c0 2.973 2.436 5.34 5.381 5.34 1.473 0 2.752-.578 3.784-1.528.523.922 1.404 1.432 2.959 1.445v-1.789c-.963-.041-1.362-.481-1.362-1.17v-7.65h-1.872v1.32c-1.073-.784-2.257-1.335-3.605-1.335-2.835.014-5.285 2.381-5.285 5.367Zm89.849-.069c0 2.877 2.312 5.12 5.147 5.12 1.252 0 2.38-.427 3.426-1.266v.922c0 1.83-1.431 3.316-3.344 3.316-1.128 0-2.215-.509-3-1.514l-1.472 1.101c1.183 1.308 2.78 2.134 4.555 2.134 2.917 0 5.092-2.271 5.092-5.23v-9.867h-1.831v1.252c-1.032-.784-2.188-1.252-3.426-1.252-2.821 0-5.147 2.408-5.147 5.285Zm-101.628 0c0 2.877 2.311 5.12 5.146 5.12 1.253 0 2.381-.427 3.427-1.266v.922c0 1.83-1.431 3.316-3.344 3.316-1.129 0-2.216-.509-3-1.514l-1.473 1.101c1.184 1.308 2.78 2.134 4.555 2.134 2.918 0 5.092-2.271 5.092-5.23v-9.867h-1.83v1.252c-1.032-.784-2.188-1.252-3.427-1.252-2.835 0-5.147 2.408-5.147 5.285Z" fill="#1A1A1A"></path>
							</svg>