<svg xmlns:xlink="http://www.w3.org/1999/xlink" class="Intro-logoSymbol" xmlns="http://www.w3.org/2000/svg" viewBox="0 0 334.8 277.8" xml:space="preserve" aria-hidden="true" width="334.8"  height="277.8" ><path d="M193.2 69.5c-9-2.5-16.7-3.5-25.8-3.5-9.1 0-17.2 1-26.2 3.5V165c0-14 11.2-26 26.2-26 14.9 0 25.8 12 25.8 26v53h73v-53c0-45-28-82-73-95.5z" opacity=".9" fill="#FFFFFF"></path><path d="M68.2 0h73v218h-73z" fill="#FFFFFF"></path><path d="M193.2 0v69.5c45 13.5 73 50.5 73 95.5V0h-73z" opacity=".75" fill="#FFFFFF"></path><path d="M135.7 266.4c2 2.2 4.6 3.4 7.6 3.4 4.1 0 7.2-2.3 7.2-5.7 0-3.1-2.5-4.6-5-5.2l-3.9-1.1c-1.1-.3-2-1-2-2 0-1.3 1.4-2.3 3.4-2.3 1.8 0 3.3.8 4.5 2.1l2.6-1.8c-1.7-2-4.2-3.4-7.1-3.4-4 0-6.7 2.7-6.7 5.7 0 2.5 1.9 4.4 4.4 5l3.6.9c2 .5 3 1 3 2.2 0 1.5-1.5 2.5-3.9 2.5-2.1 0-3.7-.8-4.9-2.1l-2.8 1.8zM74.3 266.4c2 2.2 4.6 3.4 7.6 3.4 4.1 0 7.2-2.3 7.2-5.7 0-3.1-2.5-4.6-5-5.2l-3.9-1.1c-1.1-.3-2-1-2-2 0-1.3 1.4-2.3 3.4-2.3 1.8 0 3.3.8 4.5 2.1l2.6-1.8c-1.7-2-4.2-3.4-7.1-3.4-4 0-6.7 2.7-6.7 5.7 0 2.5 1.9 4.4 4.4 5l3.6.9c2 .5 3 1 3 2.2 0 1.5-1.5 2.5-3.9 2.5-2.1 0-3.7-.8-4.9-2.1l-2.8 1.8zM16.7 269.3h3.8v-25.7h-3.8v10.8h-13v-10.8H0v25.7h3.7v-11.4h13v11.4zM179.7 246c0 1.2.9 2.2 2.2 2.2 1.2 0 2.2-1 2.2-2.2 0-1.2-.9-2.2-2.2-2.2-1.2.1-2.2 1-2.2 2.2zM123.8 246c0 1.2 1 2.2 2.2 2.2 1.2 0 2.2-1 2.2-2.2 0-1.2-1-2.2-2.2-2.2-1.2.1-2.2 1-2.2 2.2zM187.3 246c0 1.2 1 2.2 2.2 2.2 1.2 0 2.2-1 2.2-2.2 0-1.2-1-2.2-2.2-2.2-1.2.1-2.2 1-2.2 2.2zM116.1 246c0 1.2 1 2.2 2.2 2.2 1.2 0 2.2-1 2.2-2.2 0-1.2-1-2.2-2.2-2.2-1.2.1-2.2 1-2.2 2.2zM249 246.1c0 1.3 1 2.3 2.3 2.3 1.2 0 2.3-1 2.3-2.3 0-1.2-1-2.3-2.3-2.3-1.3 0-2.3 1-2.3 2.3zM253 250.9h-3.4v18.4h3.4v-18.4zM208.1 250.5c-.5-.1-1.1-.1-1.7-.1-1.9 0-3.4.8-5 2.2v-2.2H198v18.9h3.4v-10.2a5.2 5.2 0 0 1 6.6-5v-3.6h.1zM53.7 250.5c-.5-.1-1.1-.1-1.7-.1-1.9 0-3.4.8-5 2.2v-2.2h-3.4v18.9H47v-10.2a5.2 5.2 0 0 1 6.6-5v-3.6h.1zM326.3 253.6c2.7 0 5.1 2.1 5.1 5.4v10.2h3.3v-10.6c0-4.5-3.8-8.3-8.4-8.3-1.9 0-3.7.6-5.2 1.9v-1.9h-3.4v18.9h3.4v-10.4c.1-2.8 2.4-5.2 5.2-5.2zM264.8 253.6c2.7 0 5.1 2.1 5.1 5.4v10.2h3.3v-10.6c0-4.5-3.8-8.3-8.4-8.3-1.9 0-3.7.6-5.2 1.9v-1.9h-3.4v18.9h3.4v-10.4c0-2.8 2.3-5.2 5.2-5.2zM237.9 253.6c2.7 0 5.1 2.1 5.1 5.4v10.2h3.3v-10.6c0-4.5-3.8-8.3-8.4-8.3-1.9 0-3.7.6-5.2 1.9v-1.9h-3.4v18.9h3.4v-10.4c0-2.8 2.3-5.2 5.2-5.2zM32 266.6c-2.7 0-5-2.1-5-5.4v-10.3h-3.4v10.6c0 4.6 3.9 8.3 8.4 8.3 2 0 3.7-.7 5.2-1.9v.8c0 3.3-2.5 6-6 6-2 0-4-.9-5.5-2.7l-2.6 2c2.1 2.3 5 3.9 8.2 3.9 5.2 0 9.3-4.1 9.3-9.5V251h-3.4v10.5c0 2.8-2.4 5.1-5.2 5.1zM315.3 260c0-5.3-4.1-9.6-9.2-9.6s-9.2 4.3-9.2 9.8c0 5.3 3.9 9.6 9.8 9.6 3.5 0 5.9-1.5 7.7-3.6l-2.5-2a6.9 6.9 0 0 1-5.4 2.4c-3.6 0-5.6-2.3-6.1-5.4h14.9V260zm-14.8-1.8c1-3.2 3.2-4.6 5.6-4.6 2.5 0 4.7 1.4 5.6 4.6h-11.2zM226.8 260c0-5.3-4.1-9.6-9.2-9.6s-9.2 4.3-9.2 9.8c0 5.3 3.9 9.6 9.8 9.6 3.5 0 5.9-1.5 7.7-3.6l-2.5-2a6.9 6.9 0 0 1-5.4 2.4c-3.6 0-5.6-2.3-6.1-5.4h14.9V260zm-14.8-1.8c1-3.2 3.2-4.6 5.6-4.6 2.5 0 4.7 1.4 5.6 4.6H212zM72.6 260c0-5.3-4.1-9.6-9.2-9.6s-9.2 4.3-9.2 9.8c0 5.3 3.9 9.6 9.8 9.6 3.5 0 5.9-1.5 7.7-3.6l-2.5-2a6.9 6.9 0 0 1-5.4 2.4c-3.6 0-5.6-2.3-6.1-5.4h14.9c-.1-.4 0-.7 0-1.2zm-14.8-1.8c1-3.2 3.2-4.6 5.6-4.6 2.5 0 4.7 1.4 5.6 4.6H57.8zM158 254.1h9.1v15.2h3.4v-15.2h5.3v-3.2h-5.3c.3-3.1 2.3-4.4 5.3-4.5v-3.3c-4.8.1-8.2 3.1-8.7 7.8H158v-4.5h-3.4v4.5h-3.3v3.2h3.3v7.4c0 4.9 3.5 7.9 8.6 8v-3.3c-3.2-.1-5.2-1.9-5.2-5.1v-7zM185.7 250.4c-5.4 0-9.7 4.3-9.7 9.7 0 5.4 4.3 9.7 9.7 9.7 5.4 0 9.8-4.3 9.8-9.7 0-5.4-4.4-9.7-9.8-9.7zm0 16.2a6.4 6.4 0 0 1-6.4-6.5c0-3.6 2.7-6.5 6.4-6.5s6.4 2.9 6.4 6.5-2.7 6.5-6.4 6.5zM131.9 264.3v-13.9h-3.4v2.4c-1.9-1.4-4.1-2.4-6.5-2.4a9.69 9.69 0 1 0 .2 19.4c2.7 0 5-1.1 6.9-2.8 1 1.7 2.6 2.6 5.4 2.6v-3.3c-1.9 0-2.6-.8-2.6-2zm-9.8 2.3c-3.7 0-6.4-2.9-6.4-6.5a6.4 6.4 0 1 1 12.8 0c0 3.6-2.8 6.5-6.4 6.5zM291.2 250.4v2.3c-1.9-1.4-4-2.3-6.2-2.3-5.2 0-9.4 4.4-9.4 9.6 0 5.2 4.2 9.3 9.4 9.3 2.3 0 4.3-.8 6.2-2.3v1.7c0 3.3-2.6 6-6.1 6-2 0-4-.9-5.5-2.7l-2.7 2c2.2 2.4 5 3.9 8.3 3.9 5.3 0 9.2-4.1 9.2-9.5v-17.9h-3.2zm-6.2 15.7c-3.4 0-6-2.5-6-6 0-3.4 2.6-6.5 6-6.5 3.5 0 6.2 3 6.2 6.5s-2.8 6-6.2 6zM106.5 250.4v2.3c-1.9-1.4-4-2.3-6.2-2.3-5.2 0-9.4 4.4-9.4 9.6 0 5.2 4.2 9.3 9.4 9.3 2.3 0 4.3-.8 6.2-2.3v1.7c0 3.3-2.6 6-6.1 6-2 0-4-.9-5.5-2.7l-2.7 2c2.2 2.4 5 3.9 8.3 3.9 5.3 0 9.2-4.1 9.2-9.5v-17.9h-3.2zm-6.1 15.7c-3.4 0-6-2.5-6-6 0-3.4 2.6-6.5 6-6.5 3.5 0 6.2 3 6.2 6.5-.1 3.5-2.8 6-6.2 6z" fill="#FFFFFF"></path></svg>