<svg width="508" height="539" viewBox="0 0 508 539" fill="none" xmlns="http://www.w3.org/2000/svg">
<path d="M59.1198 430.546C88.3153 388.698 126.724 357.141 169.684 336.684C239.455 303.46 303.972 222.387 331.752 151.376C338.107 135.129 346.468 119.362 356.899 104.411C428.151 2.28165 568.839 -22.6803 671.14 48.6912C773.442 120.063 798.585 260.719 727.333 362.849C716.903 377.8 704.992 391.089 691.938 402.663C634.884 453.25 581.068 541.79 573.974 618.742C569.607 666.123 553.249 713.064 524.054 754.912C434.37 883.46 257.59 915.039 129.209 825.473C0.82917 735.907 -30.5632 559.094 59.1198 430.546Z" stroke="#2C79C1" stroke-width="16"/>
</svg>
